<svg width="61" height="16" viewBox="0 0 61 16" fill="none" xmlns="http://www.w3.org/2000/svg">
<g clip-path="url(#clip0_2_466)">
<path d="M0 15.8273H7.53774V15.0068L5.66943 14.4454V9.75982L6.31368 9.93255C7.12971 10.1701 7.9243 10.278 8.67592 10.278C11.5536 10.278 13.7011 8.57222 13.7011 5.61405C13.7011 2.6343 11.3174 0.97168 7.34447 0.97168H0V1.79219L1.76096 2.35359V14.4454L0 15.0068V15.8273ZM5.66943 2.33201H7.02236C9.14841 2.33201 9.70676 2.89341 9.70676 5.61405C9.70676 8.05402 9.36317 8.83135 7.51626 8.83135C7.3015 8.83135 7.04384 8.83135 6.78612 8.80975L5.66943 8.72335V2.33201Z" fill="white"/>
<path d="M16.5094 15.9998C17.9913 15.9998 19.2368 14.8986 19.8596 13.819C19.8596 15.1793 20.7401 15.9566 22.1575 15.9566C23.2097 15.9566 23.8969 15.568 24.4553 15.2441V14.3804C23.2742 14.2724 23.0809 14.1861 23.0809 13.5383V9.91076C23.0809 6.13208 21.5132 5.00928 18.6355 5.00928C16.7242 5.00928 14.1257 5.8082 14.1257 7.7731C14.1257 8.74476 14.7485 9.4357 15.672 9.4357C16.5094 9.4357 17.1322 8.85276 17.1322 8.09703C17.1322 7.42763 16.7887 6.80143 15.9511 6.62871V6.58552C16.2518 6.49916 16.7672 6.41278 17.4758 6.41278C19.065 6.41278 19.8596 6.77983 19.8596 8.3129V9.91076L18.0342 10.2346C15.1136 10.7313 13.8036 11.6382 13.8036 13.5167C13.8036 15.0282 14.9633 15.9998 16.5094 15.9998ZM18.0557 14.0997C17.4115 14.0997 17.0249 13.7974 17.0249 12.9553C17.0249 12.0268 17.3685 11.5734 18.4852 11.1631L19.8596 10.6665V13.0848C19.3656 13.7326 18.7644 14.0997 18.0557 14.0997Z" fill="white"/>
<path d="M31.5392 15.8273H37.1013V14.6397H36.1778L32.57 9.04727L35.1685 6.54251H36.5429V5.35493H31.5177V6.54251H32.8921L29.3273 10.9474V0H28.5757L24.4525 1.61943V2.09447L26.106 3.02294V14.6397H24.7101V15.8273H30.2722V14.6397H29.3273V12.1781L30.444 11.0985L32.5485 14.6397H31.5392V15.8273Z" fill="white"/>
<path d="M44.3362 15.8273H49.8982V14.6397H48.9748L45.367 9.04727L47.9654 6.54251H49.3399V5.35493H44.3147V6.54251H45.6891L42.1242 10.9474V0H41.3726L37.2494 1.61943V2.09447L38.903 3.02294V14.6397H37.5071V15.8273H43.0691V14.6397H42.1242V12.1781L43.2409 11.0985L45.3455 14.6397H44.3362V15.8273Z" fill="white"/>
<path d="M55.2804 15.9998C58.5876 15.9998 60.9284 13.2792 60.9284 10.4938C60.9284 7.70836 58.5876 5.00928 55.2804 5.00928C51.9733 5.00928 49.6324 7.70836 49.6324 10.4938C49.6324 13.2792 51.9733 15.9998 55.2804 15.9998ZM55.2804 14.7906C53.9919 14.7906 53.2188 14.0781 53.2188 10.4938C53.2188 6.88783 54.0134 6.21846 55.2804 6.21846C56.5475 6.21846 57.342 6.86623 57.342 10.4938C57.342 14.0781 56.5689 14.7906 55.2804 14.7906Z" fill="white"/>
</g>
<defs>
<clipPath id="clip0_2_466">
<rect width="61" height="16" fill="white"/>
</clipPath>
</defs>
</svg>
